<?xml version="1.0" encoding="UTF-8"?>
<svg id="Ebene_2" data-name="Ebene 2" xmlns="http://www.w3.org/2000/svg" viewBox="0 0 156.24 156.24">
  <defs>
    <style>
      .cls-1 {
        fill: #fff;
      }

      .cls-2 {
        fill: #101729;
      }
    </style>
  </defs>
  <g id="Ebene_1-2" data-name="Ebene 1">
    <g>
      <circle class="cls-2" cx="78.12" cy="78.12" r="78.12"/>
      <path class="cls-1" d="M103.65,44.61c-10.26,0-19.45,4.63-25.6,11.92-4.93,5.84-7.91,13.37-7.91,21.59h0c0,9.62-7.86,17.42-17.55,17.42s-17.55-7.8-17.55-17.42c0-.95.08-1.88.23-2.79,1.35-8.29,8.59-14.62,17.32-14.62,6.83,0,12.74,3.87,15.64,9.52,1.27-5.67,3.89-11,7.68-15.5.07-.08.14-.16.21-.24-6.06-5.94-14.37-9.61-23.54-9.61-17.53,0-31.95,13.43-33.39,30.46-.08.92-.12,1.85-.12,2.79,0,18.33,15.03,33.25,33.51,33.25,10.18,0,19.31-4.53,25.46-11.66,5.01-5.81,8.05-13.36,8.05-21.59h0c0-9.69,7.86-17.55,17.55-17.55s17.55,7.86,17.55,17.55c0,.95-.08,1.88-.22,2.79-1.34,8.37-8.59,14.76-17.33,14.76-6.84,0-12.76-3.92-15.66-9.63-1.29,5.68-3.96,11.01-7.83,15.49-.07.08-.14.16-.21.24,6.07,6.08,14.45,9.85,23.7,9.85,17.54,0,31.97-13.54,33.39-30.72.08-.92.12-1.85.12-2.79,0-18.48-15.03-33.51-33.51-33.51Z"/>
    </g>
  </g>
</svg>