<?xml version="1.0" encoding="UTF-8"?>
<svg id="Ebene_2" data-name="Ebene 2" xmlns="http://www.w3.org/2000/svg" viewBox="0 0 460.93 109.24">
  <defs>
    <style>
      .cls-1 {
        fill: #101729;
      }
    </style>
  </defs>
  <g id="Ebene_1-2" data-name="Ebene 1">
    <g>
      <path class="cls-1" d="M145.55,21.68c-26.49,0-44.28,17.25-44.28,42.91s17.12,42.4,43.61,42.4c11.4,0,19.16-4.47,24.49-8.71l.22,7.25h20.24v-40.93c0-25.67-17.8-42.91-44.28-42.91ZM168.34,70.08c-1.79,9.75-11.26,17.1-22.01,17.1-13.51,0-22.23-8.87-22.23-22.59s8.73-22.59,22.23-22.59c10.75,0,22.23,5.93,22.23,22.59,0,.45-.07,4.66-.22,5.49Z"/>
      <path class="cls-1" d="M284.34,66.32V.5h-20.24l-.22,32.14c-5.33-4.24-13.09-8.71-24.49-8.71-26.49,0-43.61,16.64-43.61,42.4s17.8,42.91,44.28,42.91,44.28-17.25,44.28-42.91ZM263.06,66.32c0,16.66-11.49,22.59-22.23,22.59-13.51,0-22.23-8.87-22.23-22.59s8.73-22.59,22.23-22.59c10.76,0,20.22,7.35,22.01,17.1.15.83.22,5.04.22,5.49Z"/>
      <path class="cls-1" d="M106.94,27.6v-4.58c-10.59-1.2-23.74-.5-30.54,10.11l-.22-8.62h-19.99v81.59h22.18v-41.45c0-.45.22-4.64.22-5.49,0-12.96,8.66-16.51,18.39-17.02,2.5-5.15,5.82-9.92,9.96-14.54Z"/>
      <path class="cls-1" d="M46,41.92v-17.42h-15.99V3.64L6.61,7.42v17.08H0v17.42h6.61v40.19c0,15.61,10.75,23.98,24.96,23.98,7.92,0,14.42-1.24,14.42-1.24v-19.87s-3.73.39-5.08.48c-5.66.37-10.91.64-10.91-5.05v-38.49h15.99Z"/>
      <path class="cls-1" d="M397.45,24.32c-13,0-24.65,5.87-32.44,15.1-6.25,7.4-10.02,16.94-10.02,27.36h0c0,12.19-9.96,22.07-22.24,22.07s-22.24-9.88-22.24-22.07c0-1.2.1-2.39.29-3.54,1.71-10.51,10.88-18.53,21.95-18.53,8.65,0,16.14,4.91,19.82,12.06,1.61-7.18,4.93-13.94,9.74-19.64.09-.1.18-.21.27-.31-7.67-7.53-18.21-12.18-29.83-12.18-22.21,0-40.49,17.01-42.31,38.6-.1,1.17-.15,2.35-.15,3.54,0,23.23,19.05,42.13,42.46,42.13,12.9,0,24.47-5.74,32.26-14.77,6.35-7.37,10.2-16.93,10.2-27.36h0c0-12.28,9.96-22.24,22.24-22.24s22.24,9.96,22.24,22.24c0,1.2-.1,2.39-.28,3.54-1.7,10.6-10.88,18.7-21.96,18.7-8.67,0-16.17-4.96-19.84-12.2-1.64,7.2-5.02,13.95-9.92,19.63-.09.1-.18.2-.27.31,7.69,7.71,18.31,12.48,30.03,12.48,22.22,0,40.51-17.16,42.31-38.92.1-1.17.15-2.35.15-3.54,0-23.41-19.05-42.46-42.46-42.46Z"/>
      <path class="cls-1" d="M460.93,10.23c0,5.8-4.55,10.35-10.48,10.35s-10.54-4.55-10.54-10.35,4.68-10.23,10.54-10.23,10.48,4.55,10.48,10.23ZM442.53,10.23c0,4.55,3.37,8.17,7.98,8.17s7.8-3.62,7.8-8.11-3.31-8.23-7.86-8.23-7.92,3.68-7.92,8.17ZM448.83,15.59h-2.37V5.36c.94-.19,2.25-.31,3.93-.31,1.93,0,2.81.31,3.56.75.56.44,1,1.25,1,2.25,0,1.12-.87,2-2.12,2.37v.12c1,.37,1.56,1.12,1.87,2.5.31,1.56.5,2.18.75,2.56h-2.56c-.31-.37-.5-1.31-.81-2.5-.19-1.12-.81-1.62-2.12-1.62h-1.12v4.12ZM448.89,9.79h1.12c1.31,0,2.37-.44,2.37-1.5,0-.94-.69-1.56-2.18-1.56-.62,0-1.06.06-1.31.12v2.93Z"/>
    </g>
  </g>
</svg>