<?xml version="1.0" encoding="UTF-8"?>
<svg id="Ebene_2" data-name="Ebene 2" xmlns="http://www.w3.org/2000/svg" viewBox="0 0 644.85 156.24">
  <defs>
    <style>
      .cls-1 {
        fill: #ffffff;
      }
    </style>
  </defs>
  <g id="Ebene_1-2" data-name="Ebene 1">
    <g>
      <path class="cls-1" d="M329.46,45.18c-26.49,0-44.28,17.25-44.28,42.91s17.12,42.4,43.61,42.4c11.4,0,19.16-4.47,24.49-8.71l.22,7.25h20.24v-40.93c0-25.67-17.8-42.91-44.28-42.91ZM352.25,93.58c-1.79,9.75-11.26,17.1-22.01,17.1-13.51,0-22.23-8.87-22.23-22.59s8.73-22.59,22.23-22.59c10.75,0,22.23,5.93,22.23,22.59,0,.45-.07,4.66-.22,5.49Z"/>
      <path class="cls-1" d="M447.78,56.14c-5.33-4.24-13.09-8.71-24.49-8.71-26.49,0-43.61,16.64-43.61,42.4s17.8,42.91,44.28,42.91,44.28-17.25,44.28-42.91V24h-20.24l-.22,32.14ZM424.74,112.41c-13.51,0-22.23-8.87-22.23-22.59s8.73-22.59,22.23-22.59c10.76,0,20.22,7.35,22.01,17.1.15.83.22,5.04.22,5.49,0,16.66-11.48,22.59-22.23,22.59Z"/>
      <path class="cls-1" d="M290.85,46.51c-10.59-1.2-23.74-.5-30.54,10.11l-.22-8.62h-19.99v81.59h22.18v-41.45c0-.45.22-4.64.22-5.49,0-12.96,8.66-16.51,18.39-17.02,2.5-5.15,5.82-9.92,9.96-14.54v-4.58Z"/>
      <path class="cls-1" d="M213.92,27.14l-23.39,3.78v17.08h-6.61v17.42h6.61v40.19c0,15.61,10.75,23.98,24.97,23.98,7.92,0,14.42-1.24,14.42-1.24v-19.87s-3.73.39-5.08.48c-5.66.37-10.91.64-10.91-5.05v-38.49h15.99v-17.42h-15.99v-20.85Z"/>
      <path class="cls-1" d="M581.37,47.81c-13,0-24.65,5.87-32.44,15.1-6.25,7.4-10.02,16.94-10.02,27.36h0c0,12.19-9.96,22.07-22.24,22.07s-22.24-9.88-22.24-22.07c0-1.2.1-2.39.29-3.54,1.71-10.51,10.88-18.53,21.95-18.53,8.65,0,16.14,4.91,19.82,12.06,1.61-7.18,4.93-13.94,9.74-19.64.09-.1.18-.21.27-.31-7.67-7.53-18.21-12.18-29.83-12.18-22.21,0-40.49,17.01-42.31,38.6-.1,1.17-.15,2.35-.15,3.54,0,23.23,19.05,42.13,42.46,42.13,12.9,0,24.47-5.74,32.26-14.77,6.35-7.37,10.2-16.93,10.2-27.36h0c0-12.28,9.96-22.24,22.24-22.24s22.24,9.96,22.24,22.24c0,1.2-.1,2.39-.28,3.54-1.7,10.6-10.88,18.7-21.96,18.7-8.67,0-16.17-4.96-19.84-12.2-1.64,7.2-5.02,13.95-9.92,19.63-.09.1-.18.2-.27.31,7.69,7.71,18.31,12.48,30.03,12.48,22.22,0,40.51-17.16,42.31-38.92.1-1.17.15-2.35.15-3.54,0-23.41-19.05-42.46-42.46-42.46Z"/>
      <path class="cls-1" d="M634.37,23.5c-5.86,0-10.54,4.55-10.54,10.23s4.68,10.35,10.54,10.35,10.48-4.55,10.48-10.35-4.55-10.23-10.48-10.23ZM634.43,41.9c-4.62,0-7.98-3.62-7.98-8.17s3.37-8.17,7.92-8.17,7.86,3.68,7.86,8.23-3.31,8.11-7.8,8.11Z"/>
      <path class="cls-1" d="M636.74,34.04v-.12c1.25-.37,2.12-1.25,2.12-2.37,0-1-.44-1.81-1-2.25-.75-.44-1.62-.75-3.56-.75-1.68,0-2.99.12-3.93.31v10.23h2.37v-4.12h1.12c1.31,0,1.93.5,2.12,1.62.31,1.19.5,2.12.81,2.5h2.56c-.25-.37-.44-1-.75-2.56-.31-1.37-.87-2.12-1.87-2.5ZM633.93,33.29h-1.12v-2.93c.25-.06.69-.12,1.31-.12,1.5,0,2.18.62,2.18,1.56,0,1.06-1.06,1.5-2.37,1.5Z"/>
      <path class="cls-1" d="M78.12,0C34.98,0,0,34.97,0,78.12s34.98,78.12,78.12,78.12,78.12-34.98,78.12-78.12S121.27,0,78.12,0ZM137.04,80.91c-1.42,17.17-15.85,30.71-33.39,30.71-9.25,0-17.63-3.77-23.7-9.85.07-.08.14-.16.21-.24,2.42-2.8,4.37-5.93,5.8-9.27.87-2.01,1.55-4.09,2.03-6.22,2.9,5.71,8.82,9.63,15.66,9.63,8.74,0,15.99-6.4,17.33-14.76.15-.91.22-1.84.22-2.79,0-9.7-7.85-17.56-17.55-17.56-4.84,0-9.23,1.96-12.41,5.14-3.17,3.18-5.14,7.57-5.14,12.42s-.96,9.04-2.7,13.05c-1.34,3.12-3.16,5.99-5.35,8.54-6.15,7.13-15.28,11.66-25.46,11.66-18.48,0-33.51-14.92-33.51-33.25,0-.94.04-1.88.12-2.8,1.44-17.03,15.86-30.45,33.39-30.45,9.17,0,17.48,3.67,23.54,9.61-.07.08-.14.16-.21.24-3.09,3.66-5.4,7.86-6.83,12.35-.33,1.03-.62,2.09-.86,3.15-2.9-5.65-8.81-9.52-15.64-9.52-8.74,0-15.98,6.33-17.32,14.62-.15.91-.23,1.85-.23,2.8,0,9.62,7.86,17.41,17.55,17.41,4.84,0,9.23-1.95,12.41-5.1,3.17-3.15,5.14-7.5,5.14-12.31,0-3.6.57-7.06,1.63-10.31,1.35-4.18,3.51-8.01,6.28-11.29,6.15-7.28,15.34-11.91,25.6-11.91,18.48,0,33.51,15.03,33.51,33.51,0,.94-.04,1.87-.12,2.79Z"/>
    </g>
  </g>
</svg>